<?xml version="1.0" encoding="iso-8859-1"?>
<!-- Generator: Adobe Illustrator 19.0.0, SVG Export Plug-In . SVG Version: 6.00 Build 0)  -->
<svg version="1.1" id="Layer_1" xmlns="http://www.w3.org/2000/svg" xmlns:xlink="http://www.w3.org/1999/xlink" x="0px" y="0px"
	 viewBox="0 0 512 512" style="enable-background:new 0 0 512 512;" xml:space="preserve">
<path style="fill:#F9D984;" d="M334.656,107.58H176.639l-3.626,5.444c-2.005,3.011-1.79,6.966,0.53,9.748l60.337,72.316h43.537
	l60.336-72.316c2.321-2.782,2.537-6.736,0.529-9.748L334.656,107.58z"/>
<polygon style="fill:#FDF276;" points="222.952,118.09 248.531,195.087 262.767,195.087 288.344,118.09 "/>
<path style="fill:#FEFAC8;" d="M338.281,113.023l-27.017-40.572c-1.537-2.303-4.136-3.688-6.922-3.688h-97.384
	c-2.786,0-5.389,1.386-6.921,3.688l-27.021,40.572c-1.023,1.537-1.464,3.32-1.347,5.067H339.63
	C339.747,116.343,339.306,114.561,338.281,113.023z"/>
<g>
	<path style="fill:#FDF276;" d="M203.19,69.671c-1.256,0.634-2.353,1.578-3.154,2.78l-27.023,40.572
		c-1.023,1.536-1.464,3.319-1.347,5.067h63.772L203.19,69.671z"/>
	<path style="fill:#FDF276;" d="M275.858,118.09h63.773c0.117-1.748-0.324-3.531-1.35-5.067l-27.02-40.572
		c-0.802-1.203-1.895-2.146-3.155-2.78L275.858,118.09z"/>
</g>
<polygon style="fill:#F9D984;" points="255.6,68.764 222.749,118.09 288.548,118.09 255.695,68.764 "/>
<path style="opacity:0.1;enable-background:new    ;" d="M238.584,195.087c-15.637-26.538-42.879-72.316-42.879-72.316
	c-2.321-2.782-2.535-6.736-0.53-9.748l27.02-40.572c1.534-2.303,4.136-3.688,6.921-3.688h-22.16c-2.786,0-5.389,1.386-6.921,3.688
	l-27.021,40.572c-2.005,3.011-1.79,6.966,0.53,9.748l60.337,72.316L238.584,195.087L238.584,195.087z"/>
<path style="fill:#BF953E;" d="M295.591,215.197c0,2.919-2.389,5.309-5.309,5.309h-69.265c-2.92,0-5.308-2.39-5.308-5.309v-26.002
	c0-2.919,2.388-5.308,5.308-5.308h69.265c2.921,0,5.309,2.389,5.309,5.308V215.197z"/>
<path style="opacity:0.1;enable-background:new    ;" d="M237.601,215.197v-26.002c0-2.919,2.389-5.308,5.308-5.308h-21.893
	c-2.92,0-5.308,2.389-5.308,5.308v26.002c0,2.919,2.388,5.309,5.308,5.309h21.893C239.99,220.506,237.601,218.116,237.601,215.197z"
	/>
<path style="fill:#EFBA50;" d="M254.648,207.87c-81.921,0-148.331,66.21-148.331,147.885c0,81.674,66.41,147.885,148.331,147.885
	s148.331-66.211,148.331-147.885C402.979,274.08,336.569,207.87,254.648,207.87z M254.648,464.97
	c-60.402,0-109.544-48.993-109.544-109.215c0-60.221,49.142-109.215,109.544-109.215s109.543,48.994,109.543,109.215
	S315.051,464.97,254.648,464.97z"/>
<g style="opacity:0.1;">
	<path d="M127.908,355.755c0-78.056,60.655-141.98,137.536-147.494c-3.564-0.255-7.164-0.392-10.794-0.392
		c-81.921,0-148.331,66.21-148.331,147.885c0,81.674,66.41,147.885,148.331,147.885c3.63,0,7.23-0.137,10.794-0.393
		C188.563,497.734,127.908,433.81,127.908,355.755z"/>
</g>
<path d="M256.001,34.496c4.329,0,7.837-3.509,7.837-7.837V7.837c0-4.328-3.508-7.837-7.837-7.837c-4.328,0-7.837,3.509-7.837,7.837
	V26.66C248.164,30.987,251.673,34.496,256.001,34.496z"/>
<path d="M119.8,151.463h18.879c4.328,0,7.837-3.509,7.837-7.837c0-4.328-3.509-7.837-7.837-7.837H119.8
	c-4.328,0-7.837,3.509-7.837,7.837C111.963,147.954,115.472,151.463,119.8,151.463z"/>
<path d="M373.32,151.463h18.88c4.328,0,7.837-3.509,7.837-7.837c0-4.328-3.509-7.837-7.837-7.837h-18.88
	c-4.329,0-7.837,3.509-7.837,7.837C365.483,147.954,368.992,151.463,373.32,151.463z"/>
<path d="M338.959,68.755c2.001,0,4.004-0.762,5.533-2.287l13.349-13.309c3.066-3.055,3.072-8.018,0.018-11.082
	c-3.056-3.065-8.019-3.074-11.082-0.017l-13.35,13.309c-3.066,3.055-3.072,8.018-0.018,11.082
	C334.94,67.987,336.949,68.755,338.959,68.755z"/>
<path d="M167.51,66.468c1.53,1.525,3.532,2.287,5.533,2.287c2.009,0,4.019-0.768,5.549-2.304c3.056-3.065,3.048-8.027-0.017-11.082
	l-13.35-13.31c-3.066-3.056-8.028-3.049-11.083,0.017c-3.056,3.065-3.048,8.027,0.017,11.082L167.51,66.468z"/>
<path d="M188.042,278.42c3.244-2.864,3.554-7.816,0.69-11.061c-2.863-3.244-7.815-3.555-11.061-0.69
	c-25.409,22.425-39.982,54.628-39.982,88.352c0,65.053,53.075,117.978,118.311,117.978S374.31,420.075,374.31,355.022
	s-53.072-117.978-118.31-117.978c-19.065,0-38.027,4.652-54.835,13.454c-3.834,2.007-5.314,6.744-3.307,10.578
	c2.007,3.834,6.743,5.315,10.577,3.307c14.575-7.632,31.022-11.665,47.565-11.665c56.594,0,102.637,45.894,102.637,102.305
	s-46.043,102.305-102.637,102.305c-56.595,0-102.637-45.894-102.637-102.305C153.362,325.792,166.003,297.871,188.042,278.42z"/>
<path d="M303.148,205.238v-18.788c0-3.364-1.288-6.425-3.384-8.742l43.063-51.614c4.543-5.445,4.954-13.064,1.025-18.958
	l-26.596-39.937c-2.974-4.458-7.957-7.118-13.332-7.118h-95.849c-5.379,0-10.364,2.663-13.334,7.123l-26.596,39.932
	c-3.927,5.896-3.514,13.515,1.027,18.958l43.063,51.614c-2.096,2.318-3.384,5.378-3.384,8.742v18.788
	c-63.844,20.025-110.28,79.597-110.28,149.784C98.573,441.58,169.195,512,256.001,512c32.475,0,63.654-9.78,90.166-28.283
	c3.55-2.477,4.418-7.362,1.941-10.912c-2.476-3.548-7.362-4.419-10.911-1.941c-23.869,16.659-51.946,25.463-81.197,25.463
	c-78.164,0-141.754-63.389-141.754-141.305s63.59-141.305,141.754-141.305s141.754,63.389,141.754,141.305
	c0,37.901-14.851,73.49-41.817,100.211c-3.074,3.046-3.097,8.008-0.05,11.082c3.048,3.074,8.008,3.096,11.082,0.05
	c29.958-29.688,46.457-69.23,46.457-111.344C413.428,284.835,366.993,225.263,303.148,205.238z M282.956,173.389h-5.425l2.737-8.237
	c1.366-4.107-0.858-8.543-4.966-9.908c-4.104-1.366-8.543,0.858-9.907,4.966l-4.379,13.178h-10.029l-16.306-49.085h1.429h39.78
	h1.429l-3.704,11.152c-1.366,4.107,0.859,8.543,4.966,9.908c0.82,0.273,1.652,0.401,2.471,0.401c3.284,0,6.344-2.081,7.435-5.369
	l5.346-16.092h30.073L282.956,173.389z M308.272,81.987l14.727,22.112l3.019,4.532h-33.439l-1.027-1.54L308.272,81.987z
	 M293.591,75.755l-11.454,17.198l-11.454-17.198H293.591z M273.745,108.631h-35.491l17.745-26.644L273.745,108.631z M241.319,75.755
	l-11.454,17.198L218.41,75.755H241.319z M203.73,81.987l16.72,25.103l-1.026,1.54h-33.439L203.73,81.987z M188.092,124.304h30.073
	l16.306,49.085h-5.425L188.092,124.304z M287.475,201.198c-10.172-2.067-20.699-3.155-31.474-3.155
	c-10.776,0-21.301,1.088-31.474,3.155v-12.135h62.949V201.198z"/>
<path style="opacity:0.1;enable-background:new    ;" d="M196.65,121.074c-2.284-2.738-2.495-6.63-0.521-9.593l18.154-27.257
	l-10.265-15.412l-0.001-0.001c-1.238,0.626-2.317,1.556-3.104,2.739l-26.595,39.932c-1.974,2.964-1.763,6.857,0.521,9.593
	l50.187,60.152h19.954l-1.229-3.699L196.65,121.074z"/>
<g>
</g>
<g>
</g>
<g>
</g>
<g>
</g>
<g>
</g>
<g>
</g>
<g>
</g>
<g>
</g>
<g>
</g>
<g>
</g>
<g>
</g>
<g>
</g>
<g>
</g>
<g>
</g>
<g>
</g>
</svg>
