<?xml version="1.0" encoding="iso-8859-1"?>
<!-- Generator: Adobe Illustrator 19.0.0, SVG Export Plug-In . SVG Version: 6.00 Build 0)  -->
<svg version="1.1" id="Layer_1" xmlns="http://www.w3.org/2000/svg" xmlns:xlink="http://www.w3.org/1999/xlink" x="0px" y="0px"
	 viewBox="0 0 512 512" style="enable-background:new 0 0 512 512;" xml:space="preserve">
<g>
	<path style="fill:#16786C;" d="M160.689,291.227h-35.582c-39.68,33.732-63.363,80.808-62.719,126.434h0.002
		c0.041,1.892,0.783,15.057,2.195,21.362c0.076,0.542,0.199,1.073,0.368,1.593c9.232,37.448,41.199,63.547,77.946,63.547
		c36.943,0,69.055-26.376,78.089-64.146c1.61-7.224,2.11-14.924,2.419-22.359C224.051,372.034,200.369,324.959,160.689,291.227z"/>
	<path style="fill:#16786C;" d="M386.889,291.227h-35.581c-39.68,33.732-63.363,80.808-62.72,126.434h0.002
		c0.041,1.892,0.784,15.057,2.196,21.362c0,0,0.114,0.633,0.151,0.814c0.053,0.269,0.124,0.531,0.216,0.779
		c9.232,37.448,41.198,63.547,77.945,63.547c36.946,0,69.056-26.376,78.09-64.146l-0.03-0.005c0.091-0.297,0.174-0.614,0.241-0.953
		c1.425-6.308,2.163-19.484,2.204-21.4h0.004C450.251,372.034,426.571,324.959,386.889,291.227z"/>
</g>
<g>
	<path style="fill:#EFBA50;" d="M326.471,432.139c5.249,21.288,22.78,36.158,42.628,36.158c19.653,0,36.949-14.492,42.428-35.388
		c1.089-5.261,1.527-10.674,1.737-16.042c0.364-32.816-16.155-67.018-44.164-93.217c-28.015,26.208-44.53,60.409-44.169,93.218
		C325.128,421.899,325.352,427.204,326.471,432.139z"/>
	<path style="fill:#EFBA50;" d="M100.27,432.139c5.249,21.288,22.78,36.158,42.629,36.158c19.652,0,36.948-14.492,42.427-35.388
		c1.089-5.262,1.527-10.673,1.737-16.042c0.364-32.816-16.154-67.018-44.163-93.217c-28.014,26.208-44.531,60.409-44.169,93.218
		C98.927,421.896,99.146,427.208,100.27,432.139z"/>
</g>
<path style="opacity:0.1;enable-background:new    ;" d="M310.284,417.66h-0.002c-0.643-45.63,23.054-92.701,62.741-126.434h-21.714
	c-39.68,33.732-63.363,80.808-62.72,126.434h0.002c0.041,1.892,0.784,15.057,2.196,21.362c0,0,0.114,0.633,0.151,0.814
	c0.053,0.269,0.124,0.531,0.216,0.779c9.232,37.448,41.198,63.547,77.945,63.547c3.672,0,7.292-0.272,10.849-0.778
	c-32.057-4.558-60.75-28.717-67.524-62.768C309.767,427.266,309.855,417.154,310.284,417.66z"/>
<path style="opacity:0.1;enable-background:new    ;" d="M359.15,432.139c-0.019-0.08-0.039-0.159-0.057-0.237
	c-0.045-0.209-0.088-0.418-0.137-0.631c-0.539-2.599-1.212-11.008-1.345-14.404c-0.285-25.793,9.865-52.442,27.829-75.395
	c-4.887-6.246-10.347-12.218-16.339-17.824c-28.015,26.208-44.53,60.409-44.169,93.219c0.196,5.032,0.42,10.337,1.539,15.272
	c5.249,21.288,22.78,36.158,42.628,36.158c5.73,0,11.256-1.239,16.351-3.504C372.855,459.196,362.886,447.298,359.15,432.139
	C359.131,432.059,362.886,447.298,359.15,432.139z"/>
<g>
	<path style="fill:#16786C;" d="M382.599,93.244c-4.254,1.378-8.789,2.133-13.501,2.133c-4.714,0-9.248-0.754-13.502-2.133
		c-5.034,3.988-8.276,10.145-8.276,17.067c0,12.028,9.749,21.778,21.778,21.778c12.027,0,21.778-9.75,21.778-21.778
		C390.876,103.388,387.635,97.233,382.599,93.244z"/>
	<path style="fill:#16786C;" d="M156.399,93.244c-4.254,1.378-8.789,2.133-13.501,2.133c-4.714,0-9.249-0.754-13.503-2.133
		c-5.035,3.988-8.276,10.144-8.276,17.067c0,12.028,9.749,21.778,21.779,21.778c12.027,0,21.777-9.75,21.777-21.778
		C164.674,103.388,161.434,97.233,156.399,93.244z"/>
</g>
<g>
	<circle style="fill:#EFBA50;" cx="369.099" cy="51.608" r="43.77"/>
	<path style="fill:#EFBA50;" d="M142.899,7.837c-24.175,0-43.772,19.598-43.772,43.77c0,24.173,19.597,43.771,43.772,43.771
		c24.172,0,43.77-19.598,43.77-43.771C186.667,27.435,167.069,7.837,142.899,7.837z"/>
</g>
<path style="opacity:0.1;enable-background:new    ;" d="M368.994,110.311c0-6.019,2.449-11.455,6.398-15.391
	c-2.055,0.296-4.156,0.458-6.293,0.458c-4.714,0-9.248-0.754-13.502-2.133c-5.034,3.988-8.276,10.145-8.276,17.067
	c0,12.028,9.749,21.778,21.778,21.778c3.95,0,7.643-1.067,10.837-2.906C373.402,125.423,368.994,118.39,368.994,110.311z"/>
<g>
	<path style="fill:#37C4B3;" d="M394.789,249.636h-51.383c-2.87,0-5.218,2.349-5.218,5.218v31.155c0,2.869,2.348,5.218,5.218,5.218
		h51.383c2.87,0,5.218-2.349,5.218-5.218v-31.155C400.007,251.984,397.66,249.636,394.789,249.636z"/>
	<path style="fill:#37C4B3;" d="M168.588,249.636h-51.382c-2.87,0-5.218,2.349-5.218,5.218v31.155c0,2.869,2.348,5.218,5.218,5.218
		h51.383c2.87,0,5.218-2.349,5.218-5.218v-31.155C173.807,251.984,171.459,249.636,168.588,249.636z"/>
</g>
<g>
	<ellipse style="fill:#36E3CC;" cx="369.099" cy="190.715" rx="21.778" ry="21.488"/>
	<path style="fill:#36E3CC;" d="M142.899,169.23c-12.03,0-21.779,9.62-21.779,21.488c0,9.21,5.884,17.045,14.136,20.101
		c2.38-0.882,4.949-1.387,7.642-1.387c2.693,0,5.26,0.505,7.641,1.387c8.251-3.056,14.135-10.891,14.135-20.101
		C164.674,178.85,154.925,169.23,142.899,169.23z"/>
</g>
<path style="fill:#FFFFFF;" d="M369.098,67.278c-8.641,0-15.671-7.031-15.671-15.671c0-8.641,7.03-15.671,15.671-15.671
	s15.671,7.031,15.671,15.671S377.74,67.278,369.098,67.278z"/>
<g>
	<path style="fill:#EFBA50;" d="M376.739,210.82c-2.38,0.882-4.948,1.387-7.641,1.387c-2.693,0-5.261-0.505-7.641-1.387
		c-8.253,3.056-14.136,10.891-14.136,20.102c0,8.035,4.476,15.028,11.096,18.714h21.362c6.619-3.686,11.097-10.68,11.097-18.714
		C390.876,221.711,384.991,213.876,376.739,210.82z"/>
	<path style="fill:#EFBA50;" d="M142.899,209.433c-12.03,0-21.779,9.62-21.779,21.488c0,8.035,4.476,15.028,11.097,18.714h21.361
		c6.62-3.686,11.097-10.68,11.097-18.714C164.674,219.053,154.925,209.433,142.899,209.433z"/>
</g>
<path style="opacity:0.1;enable-background:new    ;" d="M370.559,286.008v-31.155c0-2.869,2.349-5.218,5.218-5.218h-32.371
	c-2.87,0-5.218,2.349-5.218,5.218v31.155c0,2.869,2.348,5.218,5.218,5.218h32.371C372.908,291.227,370.559,288.878,370.559,286.008z
	"/>
<path style="opacity:0.1;enable-background:new    ;" d="M368.994,190.718c0-7.97,4.408-14.912,10.941-18.621
	c-3.194-1.813-6.887-2.867-10.837-2.867c-12.029,0-21.778,9.62-21.778,21.488c0,11.867,9.749,21.487,21.778,21.487
	c3.95,0,7.643-1.054,10.837-2.867C373.402,205.63,368.994,198.688,368.994,190.718z"/>
<path style="opacity:0.1;enable-background:new    ;" d="M132.217,249.636h21.34c0.059-0.032,0.119-0.062,0.178-0.094
	c-6.532-3.709-10.94-10.65-10.94-18.62s4.408-14.911,10.94-18.621c-3.193-1.814-6.887-2.867-10.836-2.867
	c-12.03,0-21.779,9.62-21.779,21.488C121.12,238.957,125.596,245.949,132.217,249.636z"/>
<path style="opacity:0.1;enable-background:new    ;" d="M86.278,439.022c-1.413-6.305-2.155-19.47-2.195-21.362H84.08
	c-0.643-45.63,23.055-92.701,62.741-126.434h-21.714c-39.68,33.732-63.363,80.808-62.719,126.434h0.002
	c0.041,1.892,0.783,15.057,2.195,21.362c0.076,0.542,0.199,1.073,0.368,1.593c9.232,37.448,41.199,63.547,77.946,63.547
	c3.671,0,7.29-0.272,10.848-0.778c-32.056-4.558-58.79-29.06-67.101-62.768C86.554,440.367,86.354,439.565,86.278,439.022z"/>
<path style="opacity:0.1;enable-background:new    ;" d="M132.891,431.902c-1.044-4.862-1.288-10.081-1.482-15.035
	c-0.285-25.793,9.866-52.442,27.83-75.395c-4.888-6.246-10.348-12.218-16.339-17.824c-28.014,26.208-44.531,60.409-44.169,93.218
	c0.196,5.029,0.415,10.34,1.539,15.272c5.249,21.288,22.78,36.158,42.629,36.158c5.729,0,11.255-1.239,16.35-3.504
	c-12.595-5.598-22.562-17.496-26.3-32.654C132.929,432.059,132.91,431.981,132.891,431.902
	C132.846,431.693,132.91,431.981,132.891,431.902z"/>
<path style="opacity:0.1;enable-background:new    ;" d="M142.794,110.311c0-6.019,2.449-11.455,6.398-15.391
	c-2.056,0.296-4.156,0.458-6.293,0.458c-4.714,0-9.249-0.754-13.503-2.133c-5.035,3.988-8.276,10.144-8.276,17.067
	c0,12.028,9.749,21.778,21.779,21.778c3.949,0,7.642-1.067,10.836-2.906C147.203,125.423,142.794,118.39,142.794,110.311z"/>
<path style="fill:#FFFFFF;" d="M142.899,67.278c-8.641,0-15.671-7.031-15.671-15.671c0-8.641,7.031-15.671,15.671-15.671
	c8.641,0,15.671,7.031,15.671,15.671S151.539,67.278,142.899,67.278z"/>
<path style="opacity:0.1;enable-background:new    ;" d="M144.36,286.008v-31.155c0-2.869,2.348-5.218,5.218-5.218h-32.372
	c-2.87,0-5.218,2.349-5.218,5.218v31.155c0,2.869,2.348,5.218,5.218,5.218h32.372C146.707,291.227,144.36,288.878,144.36,286.008z"
	/>
<path style="opacity:0.1;enable-background:new    ;" d="M135.256,210.82c2.38-0.882,4.949-1.387,7.642-1.387
	c2.692,0,5.259,0.505,7.639,1.387c1.11-0.413,2.181-0.904,3.196-1.481c-6.532-3.709-10.94-10.65-10.94-18.62
	s4.408-14.912,10.94-18.621c-3.193-1.813-6.887-2.867-10.836-2.867c-12.03,0-21.779,9.62-21.779,21.488
	C121.12,199.929,127.004,207.763,135.256,210.82z"/>
<path d="M137.546,317.927c-30.032,28.096-47.036,64.19-46.653,99.027c0.08,5.56,0.404,11.64,1.767,17.062
	c6.116,24.798,26.773,42.118,50.238,42.118c23.078,0,43.641-16.958,50.008-41.237c0.208-0.797,0.406-1.613,0.558-2.422
	c0.652-3.511,1.434-15.448,1.435-15.521c0.023-2.179-0.022-4.401-0.137-6.606c-0.226-4.324-3.934-7.634-8.234-7.42
	c-4.323,0.226-7.643,3.911-7.42,8.234c0.096,1.84,0.136,3.693,0.118,5.507c-0.131,3.158-0.705,10.172-1.133,12.713
	c-0.145,0.574-0.277,1.149-0.398,1.722c-4.612,17.295-18.898,29.356-34.799,29.356c-16.236,0-30.635-12.418-35.02-30.197
	c-0.773-4.476-1.126-9.057-1.313-13.594c-0.278-28.327,12.88-57.866,36.333-82.041c14.827,15.295,25.667,32.922,31.53,51.363
	c1.311,4.124,5.72,6.407,9.843,5.094c4.124-1.311,6.405-5.718,5.094-9.843c-7.357-23.144-21.574-45.039-41.112-63.318
	C145.24,315.107,140.558,315.108,137.546,317.927z"/>
<path d="M181.644,286.008v-31.155c0-6.604-4.933-12.063-11.304-12.923c1.398-3.401,2.172-7.117,2.172-11.009
	c0-7.775-3.08-14.846-8.084-20.099c5.006-5.254,8.084-12.328,8.084-20.104c0-13.483-9.24-24.863-21.777-28.276v-23.577
	c12.537-3.446,21.777-14.938,21.777-28.554c0-5.119-1.314-9.934-3.612-14.137c4.994-2.915,9.524-6.674,13.361-11.196
	c2.8-3.3,2.395-8.245-0.906-11.045c-3.299-2.8-8.245-2.395-11.045,0.906c-6.848,8.072-16.84,12.701-27.411,12.701
	c-19.814,0-35.935-16.12-35.935-35.934c0-19.813,16.121-35.933,35.935-35.933c19.813,0,35.933,16.12,35.933,35.933
	c0,1.465-0.09,2.945-0.265,4.397c-0.521,4.297,2.54,8.202,6.836,8.724c4.286,0.519,8.203-2.539,8.724-6.836
	c0.252-2.076,0.379-4.191,0.379-6.285C194.504,23.15,171.355,0,142.899,0C114.442,0,91.29,23.15,91.29,51.606
	c0,18.981,10.308,35.59,25.613,44.554c-2.302,4.207-3.62,9.026-3.62,14.151c0,13.616,9.241,25.109,21.779,28.554v23.577
	c-12.538,3.412-21.779,14.792-21.779,28.276c0,7.776,3.078,14.85,8.085,20.104c-5.005,5.253-8.085,12.324-8.085,20.099
	c0,3.893,0.774,7.607,2.172,11.009c-6.373,0.859-11.305,6.32-11.305,12.923v31.155c0,3.894,1.722,7.385,4.436,9.779
	c-34.483,34.174-54.645,78.66-54.031,122.042c0.029,1.373,0.737,15.398,2.347,22.744c0.123,0.761,0.297,1.509,0.522,2.247
	C67.621,483.569,102.721,512,142.899,512c40.585,0,75.83-28.851,85.711-70.16c1.842-7.73,2.511-16.127,2.634-24.071
	c0.61-43.334-19.551-87.81-54.034-121.983C179.921,293.392,181.644,289.902,181.644,286.008z M128.957,110.311
	c0-3.122,1.045-5.999,2.786-8.326c3.594,0.795,7.326,1.228,11.156,1.228c3.792,0,7.532-0.415,11.163-1.217
	c1.736,2.325,2.777,5.197,2.777,8.315c0,7.686-6.253,13.941-13.94,13.941C135.21,124.252,128.957,117.998,128.957,110.311z
	 M142.899,177.066c7.686,0,13.94,6.124,13.94,13.652s-6.253,13.651-13.94,13.651c-7.687,0-13.942-6.123-13.942-13.651
	S135.21,177.066,142.899,177.066z M135.808,219.188c2.274,0.555,4.646,0.855,7.09,0.855c2.443,0,4.816-0.3,7.089-0.855
	c4.093,2.38,6.851,6.743,6.851,11.733c0,4.442-2.187,8.383-5.552,10.877h-16.777c-3.366-2.495-5.553-6.436-5.553-10.877
	C128.957,225.931,131.714,221.569,135.808,219.188z M119.824,257.472h46.146v25.918h-46.146
	C119.824,283.39,119.824,257.472,119.824,257.472z M142.899,496.327c-33.055,0-61.979-23.681-70.337-57.585
	c-0.119-0.48-0.219-0.951-0.329-1.432c-1.178-5.258-1.955-17.437-2.008-19.759c-0.599-42.49,21.181-86.407,57.813-118.487h29.72
	c36.559,32.019,58.328,75.83,57.817,118.241c-0.003,0.063-1.286,14.343-2.364,21.526
	C204.818,472.715,175.994,496.327,142.899,496.327z"/>
<path d="M119.39,51.606c0,12.962,10.546,23.508,23.508,23.508c12.962,0,23.508-10.546,23.508-23.508s-10.546-23.508-23.508-23.508
	C129.936,28.098,119.39,38.643,119.39,51.606z M150.733,51.606c0,4.321-3.514,7.835-7.835,7.835c-4.321,0-7.835-3.514-7.835-7.835
	s3.514-7.835,7.835-7.835C147.218,43.772,150.733,47.286,150.733,51.606z"/>
<path d="M392.606,51.606c0-12.962-10.546-23.508-23.508-23.508c-12.962,0-23.508,10.546-23.508,23.508s10.546,23.508,23.508,23.508
	C382.06,75.115,392.606,64.568,392.606,51.606z M361.264,51.606c0-4.321,3.514-7.835,7.835-7.835s7.835,3.514,7.835,7.835
	s-3.514,7.835-7.835,7.835C364.778,59.441,361.264,55.926,361.264,51.606z"/>
<path d="M363.746,317.927c-30.031,28.095-47.035,64.19-46.651,99.027c0.079,5.586,0.443,11.622,1.766,17.062
	c6.116,24.798,26.772,42.118,50.237,42.118c23.078,0,43.642-16.958,50.009-41.237c1.495-5.72,1.909-12.048,1.993-17.944
	c0.386-34.842-16.616-70.936-46.646-99.028C371.44,315.107,366.759,315.108,363.746,317.927z M404.297,429.383
	c-0.145,0.573-0.277,1.148-0.398,1.722c-4.612,17.295-18.898,29.356-34.8,29.356c-16.235,0-30.634-12.418-35.019-30.197
	c-0.773-4.476-1.126-9.057-1.313-13.594c-0.278-28.329,12.877-57.867,36.334-82.042c23.451,24.17,36.606,53.708,36.329,82.04
	C405.299,419.819,404.724,426.835,404.297,429.383C404.152,429.955,404.724,426.835,404.297,429.383z"/>
<path d="M431.126,345.232c-3.903,1.869-5.553,6.549-3.683,10.453c9.622,20.093,14.576,41.394,14.334,61.617
	c-0.349,7.283-1.284,14.346-2.364,21.529c-8.393,33.885-37.218,57.496-70.314,57.496c-33.054,0-61.977-23.681-70.335-57.585
	c-1.69-6.791-2.18-14.209-2.339-21.191c-0.598-42.49,21.184-86.407,57.814-118.487h29.722
	c11.487,10.046,21.603,21.312,30.154,33.696c2.459,3.56,7.339,4.456,10.902,1.996c3.561-2.459,4.455-7.339,1.996-10.902
	c-6.946-10.06-14.838-19.436-23.577-28.089c2.698-2.394,4.409-5.874,4.409-9.756v-31.155c0-6.604-4.932-12.063-11.304-12.923
	c1.397-3.401,2.172-7.117,2.172-11.009c0-7.775-3.079-14.846-8.084-20.099c5.006-5.254,8.084-12.328,8.084-20.104
	c0-4.329-3.508-7.837-7.837-7.837c-4.328,0-7.837,3.508-7.837,7.837c0,7.527-6.254,13.651-13.941,13.651
	c-7.686,0-13.941-6.123-13.941-13.651s6.254-13.652,13.941-13.652c2.523,0,4.991,0.665,7.14,1.923
	c3.734,2.189,8.536,0.933,10.723-2.802c2.188-3.734,0.932-8.535-2.802-10.723c-2.266-1.328-4.698-2.343-7.223-3.028v-23.572
	c12.537-3.445,21.778-14.938,21.778-28.554c0-5.125-1.318-9.944-3.621-14.151c15.305-8.964,25.613-25.574,25.613-44.554
	C420.705,23.15,397.554,0,369.098,0c-28.457,0-51.609,23.15-51.609,51.606c0,18.982,10.308,35.591,25.614,44.554
	c-2.302,4.207-3.62,9.026-3.62,14.151c0,13.616,9.241,25.109,21.778,28.554v23.577c-12.537,3.412-21.778,14.792-21.778,28.276
	c0,7.776,3.078,14.85,8.084,20.104c-5.005,5.253-8.084,12.324-8.084,20.099c0,3.893,0.775,7.607,2.172,11.009
	c-6.373,0.859-11.305,6.32-11.305,12.923v31.155c0,3.894,1.722,7.385,4.436,9.779c-34.483,34.174-54.644,78.66-54.032,122.042
	c0.172,8.026,0.401,17.301,2.87,24.991c10.196,40.749,45.297,69.18,85.473,69.18c40.585,0,75.831-28.851,85.712-70.16
	c1.875-7.706,2.516-16.144,2.634-24.071c0.321-22.7-5.166-46.509-15.866-68.854C439.708,345.013,435.028,343.363,431.126,345.232
	C427.223,347.103,435.028,343.363,431.126,345.232z M333.163,51.606c0-19.813,16.121-35.933,35.935-35.933
	c19.813,0,35.933,16.12,35.933,35.933c0,19.814-16.12,35.934-35.933,35.934C349.284,87.539,333.163,71.421,333.163,51.606z
	 M355.157,110.311c0-3.122,1.045-5.999,2.786-8.326c3.594,0.795,7.325,1.228,11.155,1.228c3.831,0,7.56-0.433,11.155-1.228
	c1.741,2.327,2.786,5.203,2.786,8.326c0,7.686-6.254,13.941-13.941,13.941C361.412,124.252,355.157,117.998,355.157,110.311z
	 M362.009,219.188c2.274,0.555,4.647,0.855,7.09,0.855s4.816-0.3,7.09-0.855c4.093,2.38,6.851,6.743,6.851,11.733
	c0,4.442-2.188,8.383-5.553,10.877h-16.776c-3.366-2.495-5.554-6.436-5.554-10.877C355.157,225.931,357.916,221.569,362.009,219.188
	z M346.025,257.472h46.146v25.918h-46.146V257.472z"/>
<path style="opacity:0.1;enable-background:new    ;" d="M358.416,249.636h21.341c0.059-0.032,0.119-0.062,0.178-0.094
	c-6.533-3.709-10.941-10.65-10.941-18.62s4.408-14.911,10.941-18.621c-1.017-0.578-2.087-1.067-3.196-1.481
	c-2.38,0.882-4.948,1.387-7.641,1.387c-2.693,0-5.261-0.505-7.641-1.387c-8.253,3.056-14.136,10.891-14.136,20.102
	C347.321,238.957,351.797,245.949,358.416,249.636z"/>
<g>
</g>
<g>
</g>
<g>
</g>
<g>
</g>
<g>
</g>
<g>
</g>
<g>
</g>
<g>
</g>
<g>
</g>
<g>
</g>
<g>
</g>
<g>
</g>
<g>
</g>
<g>
</g>
<g>
</g>
</svg>
