<svg height="480pt" viewBox="-88 0 480 480.00269" width="480pt" xmlns="http://www.w3.org/2000/svg"><path d="m96 256.003906h112v216h-112zm0 0" fill="#f9bb4b"/><path d="m216 112.003906h-176c-13.253906 0-24 10.742188-24 24 0 56 48 104 48 104s16 16 32 16h112c16 0 32-24 32-48v-96zm0 0" fill="#ffd782"/><path d="m168 24.003906c13.257812 0 24 10.742188 24 24v80c0 13.253906-10.742188 24-24 24-13.253906 0-24-10.746094-24-24v-80c0-13.257812 10.746094-24 24-24zm0 0" fill="#f9bb4b"/><path d="m216 40.003906c13.257812 0 24 10.742188 24 24v80c0 13.253906-10.742188 24-24 24-13.253906 0-24-10.746094-24-24v-80c0-13.257812 10.746094-24 24-24zm0 0" fill="#f7ab31"/><path d="m128 216.003906h-16c0-40.753906-39.628906-47.832031-41.320312-48.113281l2.640624-15.777344c31.484376 4.90625 54.695313 32.027344 54.679688 63.890625zm0 0" fill="#f9c15f"/><path d="m58.34375 245.660156c-2.054688-2.058594-50.34375-51.015625-50.34375-109.65625 0-17.675781 14.328125-32 32-32h48c17.675781 0 32 14.324219 32 32 0 17.671875-14.324219 32-32 32h-32v-16h32c8.839844 0 16-7.164062 16-16 0-8.835937-7.160156-16-16-16h-48c-8.835938 0-16 7.164063-16 16 0 52.078125 45.203125 97.886719 45.65625 98.34375zm0 0" fill="#f9c15f"/><path d="m248 352.003906c0 26.511719-42.984375 48-96 48s-96-21.488281-96-48v-32c0 26.511719 42.984375 48 96 48s96-21.488281 96-48zm0 0" fill="#dc93bf"/><path d="m208 280.003906c24.191406 8.710938 40 15.949219 40 32v24c-4.269531-12.714844-19.925781-16.800781-40-24zm0 0" fill="#844aa8"/><path d="m96 280.003906c-24.191406 8.710938-40 15.949219-40 32v24c4.273438-12.714844 19.929688-16.800781 40-24zm0 0" fill="#844aa8"/><path d="m248 384.003906c0 26.511719-42.984375 48-96 48s-96-21.488281-96-48v-32c0 26.511719 42.984375 48 96 48s96-21.488281 96-48zm0 0" fill="#844aa8"/><g fill="#f3bb59"><path d="m0 328.003906h32v16h-32zm0 0"/><path d="m2.34375 285.664062 11.3125-11.3125 24.003906 24-11.3125 11.316407zm0 0"/><path d="m2.347656 386.339844 24-24 11.3125 11.3125-24 24.003906zm0 0"/><path d="m272 328.003906h32v16h-32zm0 0"/><path d="m266.347656 298.34375 24.003906-24.003906 11.3125 11.316406-24 24zm0 0"/><path d="m266.351562 373.664062 11.3125-11.316406 24 24.003906-11.3125 11.3125zm0 0"/></g><path d="m72 24.003906c13.257812 0 24 10.742188 24 24v80c0 13.253906-10.742188 24-24 24-13.253906 0-24-10.746094-24-24v-80c0-13.257812 10.746094-24 24-24zm0 0" fill="#f9bb4b"/><path d="m120 8.003906c13.257812 0 24 10.742188 24 24v80c0 13.253906-10.742188 24-24 24-13.253906 0-24-10.746094-24-24v-80c0-13.257812 10.746094-24 24-24zm0 0" fill="#f7ab31"/><path d="m248 208.003906v-144c-.007812-11.832031-6.542969-22.695312-16.996094-28.246094-10.449218-5.546874-23.109375-4.875-32.914062 1.75-3.21875-9.386718-10.632813-16.734374-20.042969-19.871093-9.414063-3.136719-19.75-1.707031-27.957031 3.871093-4.402344-12.863281-16.492188-21.507812-30.089844-21.507812-13.59375 0-25.6875 8.644531-30.085938 21.507812-9.804687-6.625-22.464843-7.296874-32.917968-1.75-10.449219 5.550782-16.988282 16.414063-16.996094 28.246094v56c-17.671875 0-32 14.324219-32 32 0 58.640625 48.289062 107.597656 50.34375 109.65625 8.285156 8.160156 18.480469 14.117188 29.65625 17.328125v11.414063c-19.742188 7.257812-40 16.304687-40 37.601562v72c0 18.277344 15.554688 34.214844 40 44.375v51.625h128v-51.625c24.449219-10.160156 40-26.097656 40-44.375v-72c0-21.296875-20.253906-30.34375-40-37.601562v-11.777344c17.328125-5.824219 32-29.621094 32-54.621094zm-32-160c8.839844 0 16 7.164063 16 16v80c0 8.835938-7.160156 16-16 16-8.835938 0-16-7.164062-16-16v-80c0-8.835937 7.164062-16 16-16zm-48-16c8.839844 0 16 7.164063 16 16v80c0 8.835938-7.160156 16-16 16-8.835938 0-16-7.164062-16-16v-80c0-8.835937 7.164062-16 16-16zm-64 0c0-8.835937 7.164062-16 16-16 8.839844 0 16 7.164063 16 16v80c0 8.835938-7.160156 16-16 16-8.835938 0-16-7.164062-16-16zm-9.246094 118.453125c3.300782-3.394531 5.804688-7.476562 7.335938-11.957031.488281.335938 1.039062.550781 1.542968.855469-1.0625 4.882812-4.347656 8.992187-8.878906 11.101562zm-38.753906-102.453125c0-8.835937 7.164062-16 16-16 8.839844 0 16 7.164063 16 16v80c0 8.835938-7.160156 16-16 16-8.835938 0-16-7.164062-16-16zm-32 88c0-8.835937 7.164062-16 16-16v8c.039062 11.378906 6.132812 21.878906 16 27.550782v12.449218h15.273438c4.976562.964844 40.726562 9.253906 40.726562 48h16c.554688-20.398437-9.144531-39.714844-25.832031-51.457031 8.3125-4.128906 14.417969-11.667969 16.730469-20.65625.375 0 .726562.113281 1.101562.113281 6.390625.003906 12.632812-1.914062 17.914062-5.503906 3.21875 9.382812 10.628907 16.730469 20.042969 19.867188 9.414063 3.136718 19.75 1.707031 27.957031-3.867188 3.042969 9.042969 10.015626 16.226562 18.96875 19.542969 8.949219 3.3125 18.917969 2.398437 27.117188-2.488281v36.449218c0 20.597656-13.519531 40-24 40h-112c-10.027344-1.582031-19.269531-6.375-26.34375-13.65625-.453125-.457031-45.65625-46.265625-45.65625-98.34375zm192 187.328125c6.777344 2.050781 13.25 4.988281 19.25 8.742188-5.246094 6.277343-11.820312 11.308593-19.25 14.726562zm-16 29.808594c-15.5625 4.683594-31.746094 7-48 6.863281-16.253906.136719-32.433594-2.179687-48-6.863281v-89.136719h96zm-112-6.339844c-7.425781-3.417969-14.003906-8.449219-19.246094-14.726562 6-3.753907 12.472656-6.695313 19.246094-8.742188zm-24-34.796875c0-8.488281 7.785156-13.945312 24-20.441406v14.785156l-1.292969.464844c-7.820312 2.46875-15.414062 5.589844-22.707031 9.335938zm136 152h-96v-30.160156c31.472656 8.210938 64.527344 8.210938 96 0zm-48-40c-51.855469 0-88-21.082031-88-40v-1.847656c18.257812 15.628906 50.472656 25.847656 88 25.847656 37.53125 0 69.746094-10.21875 88-25.847656v1.847656c0 18.917969-36.144531 40-88 40zm0-32c-51.855469 0-88-21.082031-88-40v-1.746094c18.273438 15.585938 50.53125 25.746094 88 25.746094 37.472656 0 69.730469-10.160156 88-25.746094v1.746094c0 18.917969-36.144531 40-88 40zm88-80v4.144532c-7.289062-3.746094-14.886719-6.867188-22.703125-9.335938l-1.296875-.464844v-14.785156c16.21875 6.496094 24 11.953125 24 20.441406zm0 0"/><path d="m0 328.003906h32v16h-32zm0 0"/><path d="m2.34375 285.664062 11.3125-11.3125 24.003906 24-11.3125 11.316407zm0 0"/><path d="m2.347656 386.339844 24-24 11.3125 11.3125-24 24.003906zm0 0"/><path d="m272 328.003906h32v16h-32zm0 0"/><path d="m266.347656 298.34375 24.003906-24.003906 11.3125 11.316406-24 24zm0 0"/><path d="m266.351562 373.664062 11.3125-11.316406 24 24.003906-11.3125 11.3125zm0 0"/></svg>