<svg id="Capa_1" enable-background="new 0 0 512 512" height="512" viewBox="0 0 512 512" width="512" xmlns="http://www.w3.org/2000/svg"><circle cx="101.606" cy="315.37" fill="#ffaa5c" r="20.592"/><path d="m101.606 294.778c-3.239 0-6.291.769-9.018 2.101 6.846 3.346 11.574 10.357 11.574 18.491 0 8.133-4.728 15.145-11.574 18.491 2.727 1.332 5.779 2.101 9.018 2.101 11.373 0 20.592-9.219 20.592-20.592s-9.22-20.592-20.592-20.592z" fill="#ff9838"/><circle cx="410.394" cy="315.37" fill="#ffaa5c" r="20.592"/><path d="m410.321 294.778c-3.224 0-6.264.762-8.981 2.084 6.866 3.339 11.611 10.36 11.611 18.508s-4.745 15.169-11.611 18.508c2.717 1.321 5.756 2.083 8.981 2.083 11.372 0 20.592-9.219 20.592-20.592 0-11.372-9.22-20.591-20.592-20.591z" fill="#ff9838"/><circle cx="128.459" cy="353.24" fill="#e8834d" r="25.831"/><path d="m128.459 327.409c-3.172 0-6.21.575-9.018 1.621 9.819 3.659 16.813 13.116 16.813 24.21s-6.995 20.551-16.813 24.21c2.808 1.046 5.845 1.621 9.018 1.621 14.266 0 25.831-11.565 25.831-25.831s-11.565-25.831-25.831-25.831z" fill="#d66e41"/><circle cx="383.541" cy="353.24" fill="#e8834d" r="25.831"/><path d="m383.541 327.409c-3.172 0-6.21.575-9.018 1.621 9.819 3.659 16.813 13.116 16.813 24.21s-6.995 20.551-16.813 24.21c2.808 1.046 5.845 1.621 9.018 1.621 14.266 0 25.831-11.565 25.831-25.831s-11.565-25.831-25.831-25.831z" fill="#d66e41"/><circle cx="175.862" cy="385.879" fill="#ffaa5c" r="31.74"/><path d="m175.861 354.138c-3.134 0-6.158.462-9.018 1.308 13.135 3.887 22.722 16.036 22.722 30.432s-9.587 26.546-22.722 30.432c2.859.846 5.884 1.307 9.018 1.307 17.53 0 31.74-14.21 31.74-31.74 0-17.528-14.21-31.739-31.74-31.739z" fill="#ff9838"/><circle cx="336.138" cy="385.879" fill="#ffaa5c" r="31.74"/><path d="m336.138 354.138c-3.134 0-6.158.462-9.018 1.308 13.135 3.887 22.722 16.036 22.722 30.432s-9.587 26.546-22.722 30.432c2.859.846 5.884 1.307 9.018 1.307 17.529 0 31.74-14.21 31.74-31.74 0-17.528-14.21-31.739-31.74-31.739z" fill="#ff9838"/><circle cx="256" cy="439.701" fill="#e8834d" r="64.784"/><path d="m256 374.917c-3.062 0-6.069.228-9.018.639 31.508 4.39 55.766 31.428 55.766 64.145s-24.258 59.755-55.766 64.145c2.948.411 5.956.639 9.018.639 35.779 0 64.784-29.005 64.784-64.784s-29.005-64.784-64.784-64.784z" fill="#d66e41"/><circle cx="256" cy="439.701" fill="#ffe55a" r="31.198"/><path d="m256 408.504c-3.136 0-6.162.468-9.018 1.329 12.832 3.869 22.18 15.775 22.18 29.869s-9.348 26-22.18 29.869c2.855.861 5.881 1.329 9.018 1.329 17.23 0 31.198-13.968 31.198-31.198 0-17.231-13.968-31.198-31.198-31.198z" fill="#ffd91d"/><path d="m256 400.989c-21.346 0-38.712 17.366-38.712 38.712s17.366 38.712 38.712 38.712c4.15 0 7.515-3.364 7.515-7.515s-3.365-7.515-7.515-7.515c-13.059 0-23.683-10.624-23.683-23.683s10.624-23.683 23.683-23.683 23.683 10.624 23.683 23.683c0 4.483-1.256 8.844-3.633 12.612-2.214 3.51-1.163 8.151 2.347 10.365 3.51 2.213 8.151 1.163 10.365-2.347 3.892-6.171 5.95-13.304 5.95-20.629 0-21.346-17.366-38.712-38.712-38.712z"/><path d="m456.443 187.914c0-27.598-5.318-53.589-15.806-77.25-10.048-22.669-24.578-42.666-43.185-59.436-36.655-33.035-86.89-51.228-141.452-51.228s-104.797 18.193-141.452 51.227c-18.608 16.77-33.137 36.767-43.185 59.436-10.488 23.661-15.806 49.653-15.806 77.25 0 36.078 9.018 73.169 26.118 107.66-5.05 5.084-8.176 12.081-8.176 19.796 0 13.829 10.042 25.35 23.216 27.672-1.036 3.217-1.601 6.642-1.601 10.199 0 4.151 3.365 7.515 7.515 7.515s7.515-3.364 7.515-7.515c0-10.1 8.217-18.317 18.316-18.317 7.855 0 14.828 4.993 17.35 12.425.641 1.888.966 3.871.966 5.892 0 10.1-8.217 18.316-18.316 18.316-1.867 0-3.706-.278-5.463-.827-3.959-1.236-8.176.973-9.412 4.935-1.237 3.961.972 8.175 4.934 9.412 3.209 1.002 6.554 1.51 9.942 1.51 2.813 0 5.545-.354 8.156-1.013-.001.102-.008.203-.008.305 0 21.645 17.61 39.254 39.254 39.254 3.308 0 6.519-.416 9.59-1.19-1.133 5.076-1.75 10.345-1.75 15.758-.002 39.868 32.431 72.3 72.297 72.3s72.299-32.432 72.299-72.298c0-5.413-.617-10.682-1.75-15.758 3.071.774 6.282 1.19 9.59 1.19 21.645 0 39.254-17.61 39.254-39.254 0-.102-.007-.203-.008-.305 2.611.659 5.343 1.013 8.156 1.013 18.386 0 33.345-14.959 33.345-33.345 0-3.557-.565-6.982-1.601-10.199 13.173-2.322 23.215-13.842 23.215-27.672 0-7.715-3.126-14.712-8.176-19.796 17.1-34.493 26.119-71.584 26.119-107.662zm-367.915 127.456c0-7.21 5.866-13.077 13.077-13.077s13.077 5.867 13.077 13.077-5.867 13.077-13.077 13.077-13.077-5.867-13.077-13.077zm63.109 70.509c0-13.358 10.867-24.225 24.225-24.225s24.225 10.867 24.225 24.225-10.867 24.225-24.225 24.225-24.225-10.867-24.225-24.225zm104.363 111.092c-31.579 0-57.27-25.691-57.27-57.269s25.691-57.269 57.27-57.269 57.27 25.691 57.27 57.269-25.691 57.269-57.27 57.269zm80.138-86.867c-13.358 0-24.225-10.867-24.225-24.225 0-4.369 1.173-8.648 3.392-12.374 2.124-3.566.956-8.178-2.611-10.301-3.566-2.124-8.178-.954-10.301 2.611-2.666 4.475-4.396 9.437-5.119 14.579-11.713-8.176-25.938-12.99-41.275-12.99s-29.562 4.814-41.275 12.991c-2.677-19.056-19.08-33.77-38.863-33.77-5.049 0-9.873.969-14.311 2.713-.271-2.32-.758-4.604-1.509-6.819-4.498-13.253-16.769-22.224-30.704-22.59.243-1.485.375-3.007.375-4.559 0-15.498-12.609-28.107-28.107-28.107-2.364 0-4.659.297-6.854.849-15.824-32.199-24.165-66.701-24.165-100.198 0-50.266 18.681-93.671 54.023-125.522 33.89-30.543 80.552-47.363 131.391-47.363s97.501 16.82 131.39 47.362c35.342 31.851 54.023 75.256 54.023 125.522 0 33.498-8.341 68-24.165 100.198-2.195-.552-4.49-.849-6.854-.849-15.498 0-28.107 12.609-28.107 28.107 0 1.548.131 3.066.373 4.547-16.665.435-30.319 13.15-32.228 29.414-4.433-1.74-9.251-2.706-14.294-2.706-4.15 0-7.515 3.364-7.515 7.515s3.365 7.515 7.515 7.515c13.358 0 24.225 10.867 24.225 24.225s-10.867 24.225-24.225 24.225zm47.403-38.547c-10.099 0-18.316-8.216-18.316-18.316s8.217-18.317 18.316-18.317 18.316 8.217 18.316 18.317-8.217 18.316-18.316 18.316zm26.853-43.11c-7.211 0-13.077-5.867-13.077-13.077s5.866-13.077 13.077-13.077c7.21 0 13.077 5.867 13.077 13.077s-5.866 13.077-13.077 13.077z"/></svg>