<?xml version="1.0" encoding="iso-8859-1"?>
<!-- Generator: Adobe Illustrator 19.0.0, SVG Export Plug-In . SVG Version: 6.00 Build 0)  -->
<svg version="1.1" id="Capa_1" xmlns="http://www.w3.org/2000/svg" xmlns:xlink="http://www.w3.org/1999/xlink" x="0px" y="0px"
	 viewBox="0 0 512.001 512.001" style="enable-background:new 0 0 512.001 512.001;" xml:space="preserve">
<path style="fill:#CE795F;" d="M110.52,12.007c-6.17-6.17-16.23-5.979-22.162,0.42L71.993,30.081
	c-2.162,2.333-2.758,5.804-1.264,8.611c2.915,5.481,2.211,12.432-2.248,17.241l-15,16.181c-2.955,3.188-6.974,4.803-11.004,4.803
	c-2.046,0-4.095-0.416-6.01-1.254c-2.888-1.264-6.263-0.503-8.406,1.81L11.602,95.227c-5.623,6.065-5.444,15.49,0.404,21.339
	l191.715,191.715l101.536-101.536L110.52,12.007z"/>
<path style="fill:#A05A4B;" d="M110.52,12.007c-6.17-6.17-16.23-5.979-22.162,0.42l-9.547,10.299l35.526,35.525l-80.323,80.323
	l33.624,33.624L169.175,70.662L110.52,12.007z"/>
<path style="fill:#B66652;" d="M499.994,401.481L305.257,206.744L203.721,308.28l191.715,191.715
	c5.848,5.848,15.273,6.026,21.338,0.403l82.8-76.756C505.973,417.711,506.164,407.65,499.994,401.481z"/>
<path style="fill:#81493B;" d="M305.257,206.744l-21.213,21.214L468.048,411.96l-83.366,77.281l10.754,10.754
	c5.848,5.848,15.273,6.026,21.338,0.403l82.8-76.756c6.399-5.932,6.589-15.992,0.419-22.162L305.257,206.744z"/>
<g>
	<path style="fill:#FFB545;" d="M374.441,95.134l-8.746,8.901l33.51,51.188l17.662-17.662c11.716-11.716,11.716-30.711,0-42.426
		S386.157,83.418,374.441,95.134z"/>
	<path style="fill:#FFB545;" d="M256,68.501c-14.241,0-28.113,1.604-41.452,4.626l-15.117-15.116
		c-11.716-11.715-30.711-11.716-42.426,0L58.01,157.006c-11.716,11.716-11.716,30.711,0,42.427l15.116,15.116
		c-3.022,13.34-4.626,27.212-4.626,41.452c0,103.388,84.112,187.5,187.5,187.5s187.5-84.112,187.5-187.5S359.388,68.501,256,68.501z
		"/>
</g>
<path style="fill:#FF6344;" d="M453.99,312.569l-15.089-15.089l-0.042,0.042c3.032-13.361,4.641-27.256,4.641-41.521
	c0-62.458-30.696-117.881-77.796-151.975c-10.004,11.787-9.46,29.479,1.665,40.604c61.409,61.41,61.409,161.33,0,222.74
	c-61.41,61.408-161.33,61.408-222.739,0c-11.125-11.126-28.81-11.679-40.597-1.675c34.095,47.101,89.509,77.806,151.967,77.806
	c14.265,0,28.16-1.609,41.521-4.642l-0.042,0.042l15.089,15.09c11.716,11.715,30.711,11.716,42.426,0l98.995-98.995
	C465.706,343.28,465.706,324.285,453.99,312.569z"/>
<path style="fill:#FFF9EB;" d="M256,391.001c-74.439,0-135-60.561-135-135s60.561-135,135-135s135,60.561,135,135
	S330.439,391.001,256,391.001z"/>
<path style="fill:#D3CDBF;" d="M327.997,141.853c-9.405,11.778-8.659,28.995,2.25,39.903c19.791,19.79,30.69,46.158,30.69,74.245
	c0,28.087-10.899,54.455-30.691,74.246c-40.939,40.939-107.553,40.939-148.492,0c-10.908-10.909-28.125-11.655-39.903-2.25
	c23.946,37.831,66.16,63.004,114.149,63.004c74.439,0,135-60.561,135-135C391,208.013,365.827,165.798,327.997,141.853z"/>
<path d="M152.637,236.069l20.258,5.428c0.65,0.175,1.304,0.258,1.946,0.258c3.312,0,6.342-2.21,7.239-5.561
	c0.174-0.649,0.257-1.301,0.258-1.941c0.002-3.313-2.209-6.347-5.561-7.244l-20.258-5.428c-4-1.073-8.114,1.302-9.186,5.303
	c-0.174,0.649-0.257,1.301-0.258,1.941C147.074,232.139,149.285,235.172,152.637,236.069z"/>
<path d="M147.334,285.118c0.897,3.351,3.928,5.561,7.239,5.561c0.643,0,1.296-0.083,1.946-0.258l20.258-5.428
	c3.352-0.897,5.563-3.931,5.561-7.244c-0.001-0.641-0.084-1.292-0.258-1.941c-1.071-4-5.181-6.378-9.186-5.303l-20.258,5.428
	c-3.352,0.897-5.563,3.931-5.561,7.244C147.077,283.817,147.16,284.469,147.334,285.118z"/>
<path d="M181.754,337.747c1.919,0,3.839-0.732,5.304-2.196l14.85-14.85c2.929-2.93,2.929-7.678,0-10.607
	c-2.93-2.928-7.678-2.928-10.607,0l-14.85,14.85c-2.929,2.93-2.929,7.678,0,10.607C177.915,337.015,179.835,337.747,181.754,337.747
	z"/>
<path d="M201.907,191.301l-14.85-14.85c-2.93-2.928-7.678-2.928-10.607,0c-2.929,2.93-2.929,7.678,0,10.607l14.85,14.85
	c2.931,2.929,7.678,2.928,10.607,0C204.836,198.979,204.836,194.231,201.907,191.301z"/>
<path d="M324.942,176.451l-14.85,14.85c-2.929,2.93-2.929,7.678,0,10.607c1.465,1.464,3.385,2.196,5.304,2.196
	s3.839-0.732,5.304-2.196l14.85-14.85c2.929-2.93,2.929-7.678,0-10.607C332.62,173.523,327.872,173.523,324.942,176.451z"/>
<path d="M275.932,152.638l-5.428,20.258c-0.174,0.649-0.257,1.301-0.258,1.941c-0.002,3.313,2.209,6.347,5.561,7.244
	c0.65,0.175,1.304,0.258,1.946,0.258c3.312,0,6.342-2.21,7.239-5.561l5.428-20.258c0.174-0.649,0.257-1.301,0.258-1.941
	C290.683,145.875,278.191,144.201,275.932,152.638z"/>
<path d="M234.247,182.339c0.643,0,1.296-0.083,1.946-0.258c3.352-0.897,5.563-3.931,5.561-7.244
	c-0.001-0.641-0.084-1.292-0.258-1.941l-5.428-20.258c-2.535-9.467-17.087-5.827-14.488,3.883l5.428,20.258
	C227.905,180.129,230.936,182.339,234.247,182.339z"/>
<path d="M320.7,310.094c-2.93-2.928-7.678-2.928-10.607,0c-2.929,2.93-2.929,7.678,0,10.607l14.85,14.85
	c1.465,1.464,3.385,2.196,5.304,2.196s3.839-0.732,5.304-2.196c2.929-2.93,2.929-7.678,0-10.607L320.7,310.094z"/>
<path d="M357.427,290.679c3.312,0,6.342-2.21,7.239-5.561c0.174-0.649,0.257-1.301,0.258-1.941c0.002-3.313-2.209-6.347-5.561-7.244
	l-20.258-5.428c-4-1.075-8.114,1.303-9.186,5.303c-0.174,0.649-0.257,1.301-0.258,1.941c-0.002,3.313,2.209,6.347,5.561,7.244
	l20.258,5.428C356.131,290.596,356.784,290.679,357.427,290.679z"/>
<path d="M337.159,241.755c0.643,0,1.296-0.083,1.946-0.258l20.258-5.428c4.001-1.071,6.375-5.185,5.303-9.186
	c-1.071-4.001-5.182-6.376-9.186-5.303l-20.258,5.428C326.791,229.266,328.461,241.755,337.159,241.755z"/>
<path d="M236.193,329.921c-4.003-1.078-8.114,1.302-9.186,5.303l-5.428,20.258c-0.174,0.649-0.257,1.301-0.258,1.941
	c-0.002,3.313,2.209,6.347,5.561,7.244c0.65,0.175,1.304,0.258,1.946,0.258c3.312,0,6.342-2.21,7.239-5.561l5.428-20.258
	c0.174-0.649,0.257-1.301,0.258-1.941C241.756,333.852,239.545,330.818,236.193,329.921z"/>
<path d="M275.932,359.364c0.897,3.351,3.928,5.561,7.239,5.561c0.643,0,1.296-0.083,1.946-0.258
	c3.352-0.897,5.563-3.931,5.561-7.244c-0.001-0.641-0.084-1.292-0.258-1.941l-5.428-20.258c-1.072-4.001-5.185-6.381-9.186-5.303
	c-3.352,0.897-5.563,3.931-5.561,7.244c0.001,0.641,0.084,1.292,0.258,1.941L275.932,359.364z"/>
<path d="M266.607,266.607c3.915-3.915,5.196-9.472,3.868-14.474l14.871-14.871c2.929-2.93,2.929-7.678,0-10.607
	c-2.93-2.928-7.678-2.928-10.607,0l-14.87,14.871c-2.533-0.672-5.203-0.672-7.736,0l-29.012-29.013
	c-2.93-2.928-7.678-2.928-10.607,0c-2.929,2.93-2.929,7.678,0,10.607l29.012,29.013c-1.327,5.002-0.047,10.559,3.868,14.474
	C251.242,272.456,260.758,272.456,266.607,266.607z"/>
<path d="M256.04,113.57h-0.09c-78.956,0-142.391,63.878-142.391,142.431c0,78.893,63.757,142.439,142.41,142.439h0.05
	c27.04,0,53.351-7.59,76.061-21.93c1.699-1.07,2.87-2.74,3.319-4.69c1.451-6.458-5.66-11.585-11.319-8
	c-20.32,12.83-43.86,19.62-68.08,19.62c-70.532-0.02-127.42-56.853-127.44-127.439c0.02-70.548,56.854-127.42,127.44-127.44
	c70.55,0.02,127.419,56.874,127.439,127.44c-0.01,34.1-13.25,66.12-37.29,90.149c-4.664,4.7-1.402,12.811,5.311,12.811
	c2,0,3.89-0.78,5.3-2.2c0.01,0,0.01-0.01,0.01-0.01c27.475-27.475,41.67-63.812,41.67-100.75
	C398.439,177.421,334.981,113.57,256.04,113.57z"/>
<path d="M505.3,396.181l-41.434-41.435c9.836-14.577,8.317-34.59-4.572-47.48l-12.233-12.232
	c10.424-51.019,0.006-104.387-29.227-147.834l4.336-4.336c7.083-7.083,10.984-16.5,10.984-26.517s-3.901-19.434-10.983-26.516
	c-7.083-7.083-16.5-10.984-26.517-10.984s-19.434,3.901-26.516,10.983l-4.338,4.337c-43.448-29.231-96.815-39.648-147.833-29.227
	l-12.234-12.233c-14.621-14.621-38.412-14.621-53.033,0L55.227,149.18L17.31,111.261c-1.51-1.51-2.31-3.44-2.31-5.58
	c0-2.02,0.729-3.88,2.1-5.35L33.56,82.57c2.83,1.221,5.83,1.841,8.92,1.841h0.04c6.221,0,12.221-2.62,16.46-7.2l15-16.181
	c3.88-4.18,6.011-9.609,6-15.29c0-3.63-0.89-7.239-2.56-10.439c0.01-0.03,0.03-0.08,0.07-0.12l16.369-17.66
	c1.511-1.609,3.561-2.51,5.78-2.52c2.15,0.01,4.07,0.81,5.57,2.31l25.04,25.03c1.41,1.42,3.3,2.2,5.3,2.2s3.89-0.78,5.31-2.2
	c2.92-2.93,2.92-7.69,0-10.61l-25.04-25.03c-4.25-4.261-10.13-6.7-16.139-6.7H99.6c-6.33,0-12.44,2.67-16.75,7.33l-16.36,17.65
	c-4.413,4.781-5.328,11.711-2.381,17.24c0.57,1.07,0.87,2.29,0.87,3.52c-0.01,1.921-0.7,3.69-2,5.101l-15,16.17
	c-1.43,1.54-3.38,2.39-5.5,2.41c-3.119,0-4.094-1.87-8.92-1.87c-4.149,0-8.16,1.76-11.01,4.83L6.1,90.131
	c-3.94,4.25-6.11,9.769-6.1,15.55c-0.01,6.02,2.43,11.92,6.7,16.19l39.185,39.185c-7.249,14.105-4.979,31.879,6.822,43.681
	l12.232,12.231c-12.896,63.121,6.102,129.846,53.175,176.919c37.439,37.439,87.308,57.12,137.908,57.12
	c13.02,0,26.087-1.311,39.005-3.949l12.238,12.237c7.311,7.311,16.913,10.965,26.517,10.965c8.124,0,16.243-2.627,22.98-7.859
	c0.006-0.005,0.012-0.01,0.019-0.015c2.749-2.138-4.12,4.547,96.97-96.544l40.938,40.938c1.5,1.511,2.301,3.431,2.311,5.57
	c-0.01,2.23-0.91,4.29-2.53,5.79l-82.79,76.76c-1.49,1.36-3.34,2.09-5.37,2.101c-2.109-0.011-4.09-0.83-5.569-2.311l-22.2-22.2
	c-2.951-2.928-7.673-2.915-10.61,0c-2.92,2.931-2.92,7.681,0,10.61l22.2,22.2c4.25,4.26,10.14,6.7,16.149,6.7h0.07
	c5.76,0,11.28-2.17,15.521-6.101l82.8-76.76c4.67-4.32,7.34-10.44,7.33-16.79C512.01,406.331,509.569,400.44,505.3,396.181z
	 M379.745,100.437c4.249-4.249,9.899-6.59,15.909-6.59s11.66,2.341,15.91,6.591c4.249,4.249,6.59,9.899,6.59,15.909
	s-2.341,11.66-6.591,15.91l-2.688,2.688c-4.63-5.841-9.625-11.464-14.99-16.829c-5.365-5.365-10.989-10.36-16.83-14.99
	L379.745,100.437z M349.691,448.688c-8.771,8.773-23.048,8.773-31.819,0l-5.899-5.898c10.374-3.109,20.593-7.1,30.543-12.016
	c3.714-1.835,5.236-6.333,3.401-10.047c-1.833-3.713-6.328-5.237-10.046-3.401c-25.442,12.569-52.756,18.681-79.851,18.68
	c-46.707-0.002-92.744-18.169-127.3-52.726c-54.603-54.602-68.284-137.849-34.046-207.15c1.835-3.714,0.313-8.212-3.401-10.046
	c-3.715-1.837-8.212-0.311-10.047,3.401c-4.916,9.95-8.91,20.166-12.02,30.54l-5.895-5.895c-8.772-8.773-8.772-23.048,0-31.82
	l98.995-98.995c8.771-8.773,23.048-8.773,31.819,0l5.895,5.895c-10.373,3.109-20.59,7.104-30.539,12.02
	c-3.714,1.835-5.236,6.333-3.401,10.047c1.835,3.713,6.33,5.241,10.046,3.401c69.304-34.237,152.55-20.556,207.15,34.046
	c54.604,54.602,68.285,137.85,34.046,207.15c-1.835,3.714-0.313,8.212,3.401,10.046c1.068,0.528,2.201,0.778,3.316,0.778
	c2.764,0,5.423-1.534,6.729-4.18c4.916-9.95,8.911-20.167,12.021-30.54l5.895,5.895c8.772,8.773,8.772,23.048,0,31.82
	L349.691,448.688z"/>
<g>
</g>
<g>
</g>
<g>
</g>
<g>
</g>
<g>
</g>
<g>
</g>
<g>
</g>
<g>
</g>
<g>
</g>
<g>
</g>
<g>
</g>
<g>
</g>
<g>
</g>
<g>
</g>
<g>
</g>
</svg>
